#!OML:ASF H:\Terrain\Patient Classification 1\Takeo\Monday\TakeoMonday.ASF
:FULLY-SPECIFIED
:DEGREES
522
root 9.59674 17.5134 0.2796 3.79116 -16.5402 -6.1653
lowerback 10.4167 3.28402 -1.99426
upperback 5.20112 4.00763 -6.63247
thorax -0.0425083 2.03347 -6.22597
lowerneck -10.8892 -11.808 -12.3412
upperneck -9.57523 -14.1235 15.3033
head 0.930522 -6.76458 5.83112
rclavicle -5.80451e-014 -3.18055e-014
rhumerus 66.7356 -23.3268 -47.4629
rradius 18.3842
rwrist 4.68652
rhand -21.6781 14.9708
rfingers 7.12502
rthumb 4.71959 -14.9566
lclavicle -5.80451e-014 -3.18055e-014
lhumerus -34.1093 -12.7153 91.0056
lradius 113.657
lwrist 20.1829
lhand -25.6472 3.73289
lfingers 7.12502
lthumb 0.886473 33.7108
rfemur 2.30403 -11.0827 27.0954
rtibia 18.4436
rfoot -19.1189 -20.7771
rtoes -7.4343
lfemur -24.297 8.38841 -13.4182
ltibia 40.7647
lfoot -13.3856 7.05562
ltoes -19.4331
523
root 9.59148 17.5117 0.278217 3.83349 -16.0609 -6.4081
lowerback 10.4172 3.18334 -1.97093
upperback 5.2912 3.88425 -6.57828
thorax 0.0373004 1.97316 -6.16597
lowerneck -10.0773 -11.7408 -12.4069
upperneck -10.4704 -14.0459 15.439
head 0.552557 -6.76708 5.96452
rclavicle -3.65764e-014 -1.27222e-014
rhumerus 66.9108 -23.5835 -47.9957
rradius 18.3787
rwrist 4.7785
rhand -21.8946 14.6158
rfingers 7.12502
rthumb 4.51054 -15.3161
lclavicle -3.65764e-014 -1.27222e-014
lhumerus -34.3359 -12.3085 91.1806
lradius 113.697
lwrist 20.2504
lhand -25.7715 3.61365
lfingers 7.12502
lthumb 0.766467 33.592
rfemur 2.47788 -11.292 27.4144
rtibia 18.1665
rfoot -19.1386 -20.8783
rtoes -7.40746
lfemur -24.5044 8.31208 -13.1526
ltibia 40.8867
lfoot -13.3218 6.67602
ltoes -19.7116
524
root 9.59012 17.5128 0.278597 3.80056 -15.7427 -6.12304
lowerback 10.3121 3.10598 -2.40806
upperback 5.41158 3.7546 -6.69361
thorax 0.189359 1.90205 -6.01815
lowerneck -10.2737 -11.8134 -12.403
upperneck -10.4279 -14.1272 15.4371
head 0.604343 -6.80004 5.94345
rclavicle 4.92986e-014 -3.81667e-014
rhumerus 66.9249 -23.663 -48.2684
rradius 18.6042
rwrist 4.67777
rhand -21.8205 14.7494
rfingers 7.12502
rthumb 4.58211 -15.181
lclavicle 4.92986e-014 -3.81667e-014
lhumerus -34.4363 -11.88 91.2343
lradius 113.717
lwrist 20.3836
lhand -26.5677 2.72823
lfingers 7.12502
lthumb -0.00251116 32.708
rfemur 2.80819 -11.3618 27.154
rtibia 17.3717
rfoot -18.8685 -20.9707
rtoes -7.03464
lfemur -24.6379 8.05741 -13.4824
ltibia 40.9554
lfoot -13.3209 6.67216
ltoes -20.5143
525
root 9.59208 17.529 0.302532 3.42296 -15.9694 -5.9153
lowerback 10.3461 3.25901 -2.64721
upperback 5.63884 3.94401 -6.84602
thorax 0.423326 1.99604 -6.0595
lowerneck -11.6049 -12.08 -12.1278
upperneck -9.26492 -14.463 14.9473
head 1.12056 -6.90846 5.61174
rclavicle 9.30312e-014 -4.45278e-014
rhumerus 66.4279 -23.6802 -47.7711
rradius 19.0781
rwrist 4.24842
rhand -21.642 15.153
rfingers 7.12502
rthumb 4.75442 -14.7737
lclavicle 9.30312e-014 -4.45278e-014
lhumerus -34.5082 -11.7242 91.26
lradius 113.737
lwrist 20.5329
lhand -27.4965 1.93217
lfingers 7.12502
lthumb -0.899669 31.91
rfemur 3.52366 -11.427 26.7166
rtibia 16.8061
rfoot -18.3997 -20.75
rtoes -7.41079
lfemur -24.1 7.86664 -13.5395
ltibia 41.0835
lfoot -13.8032 6.47197
ltoes -17.6155
526
root 9.59195 17.5575 0.363432 2.5403 -17.0529 -5.72359
lowerback 10.3855 3.79197 -2.86374
upperback 6.02534 4.64626 -7.01019
thorax 0.871244 2.34859 -6.16897
lowerneck -12.1419 -12.2429 -11.8244
upperneck -8.9048 -14.6874 14.5402
head 1.27174 -7.00431 5.38372
rclavicle 5.48646e-014 -3.49861e-014
rhumerus 65.5583 -23.7515 -46.6715
rradius 19.7387
rwrist 3.20172
rhand -21.8239 15.2665
rfingers 7.12502
rthumb 4.57883 -14.664
lclavicle 5.48646e-014 -3.49861e-014
lhumerus -34.4616 -11.8132 91.3421
lradius 113.625
lwrist 20.6484
lhand -27.1427 2.15015
lfingers 7.12502
lthumb -0.557903 32.1292
rfemur 5.02559 -11.0657 26.0276
rtibia 16.1059
rfoot -17.9769 -20.1948
rtoes -8.16047
lfemur -22.6782 7.61391 -13.1683
ltibia 41.4702
lfoot -15.3431 5.41976
ltoes -3.65731
527
root 9.58435 17.5722 0.29558 3.84892 -15.2511 -5.99922
lowerback 10.0097 3.19825 -2.57535
upperback 5.71024 3.90195 -6.96505
thorax 0.692826 1.98253 -6.19922
lowerneck -12.0493 -12.2056 -11.6692
upperneck -9.04362 -14.6552 14.3503
head 1.18318 -6.99832 5.31916
rclavicle 9.46215e-014 -8.26944e-014
rhumerus 64.7511 -23.7354 -45.8804
rradius 20.4034
rwrist 2.41446
rhand -21.871 15.1267
rfingers 7.12502
rthumb 4.53338 -14.8048
lclavicle 9.46215e-014 -8.26944e-014
lhumerus -34.5426 -11.7645 91.405
lradius 113.544
lwrist 20.6538
lhand -26.5189 2.59816
lfingers 7.12502
lthumb 0.044576 32.5779
rfemur 3.6494 -11.7599 26.9936
rtibia 15.4992
rfoot -17.7773 -21.1045
rtoes -7.98741
lfemur -24.5573 5.23697 -12.4747
ltibia 41.6617
lfoot -15.7536 3.80489
ltoes 10.7078
528
root 9.58704 17.5847 0.292295 3.85251 -15.1975 -6.27194
lowerback 10.1028 3.21664 -2.40186
upperback 5.66676 3.93264 -6.8981
thorax 0.605232 2.0006 -6.23596
lowerneck -11.6874 -12.0724 -11.6537
upperneck -9.25784 -14.4997 14.154
head 1.02735 -6.93678 5.30259
rclavicle 3.49861e-014 -4.13472e-014
rhumerus 63.4919 -23.291 -44.4276
rradius 21.3439
rwrist 1.17008
rhand -21.8624 15.0616
rfingers 7.12502
rthumb 4.54162 -14.8697
lclavicle 3.49861e-014 -4.13472e-014
lhumerus -34.8944 -11.6753 91.5289
lradius 113.495
lwrist 20.6061
lhand -26.2569 2.55122
lfingers 7.12502
lthumb 0.297643 32.5308
rfemur 3.69887 -11.9469 27.2318
rtibia 15.4877
rfoot -17.601 -20.9586
rtoes -8.22649
lfemur -23.9405 5.01926 -12.0214
ltibia 41.9294
lfoot -16.7468 2.8905
ltoes 15.3873
529
root 9.5917 17.557 0.289913 3.77595 -15.0964 -6.40696
lowerback 10.1909 3.21129 -2.34918
upperback 5.64943 3.92401 -6.82099
thorax 0.535358 1.99575 -6.1887
lowerneck -11.4223 -12.0137 -11.7135
upperneck -9.35061 -14.4351 14.0077
head 0.94253 -6.91278 5.29251
rclavicle -2.38542e-015 -4.77083e-014
rhumerus 62.0638 -22.6128 -42.6556
rradius 22.5581
rwrist -0.472523
rhand -22.185 15.1679
rfingers 7.12502
rthumb 4.23009 -14.7698
lclavicle -2.38542e-015 -4.77083e-014
lhumerus -35.2694 -11.6304 91.6774
lradius 113.397
lwrist 20.5838
lhand -26.0324 2.20009
lfingers 7.12502
lthumb 0.514407 32.1792
rfemur 3.5144 -12.1757 27.2949
rtibia 16.1728
rfoot -17.8949 -20.6758
rtoes -7.92176
lfemur -24.8288 6.27002 -12.5802
ltibia 41.6646
lfoot -14.5684 5.258
ltoes -4.28189
530
root 9.59323 17.5136 0.28881 3.73166 -15.0923 -6.36516
lowerback 10.092 3.20096 -2.50897
upperback 5.66368 3.90378 -6.85694
thorax 0.594569 1.98241 -6.12777
lowerneck -11.7434 -12.0748 -11.6446
upperneck -8.99463 -14.5165 13.8964
head 1.0894 -6.94005 5.21186
rclavicle 3.02153e-014 9.54166e-015
rhumerus 61.1516 -22.0899 -41.9444
rradius 23.625
rwrist -1.20942
rhand -22.4059 15.2194
rfingers 7.12502
rthumb 4.01677 -14.7225
lclavicle 3.02153e-014 9.54166e-015
lhumerus -35.4932 -11.4663 91.641
lradius 113.368
lwrist 20.817
lhand -26.0227 1.92706
lfingers 7.12502
lthumb 0.523823 31.9062
rfemur 3.26809 -12.0955 27.2388
rtibia 16.8034
rfoot -18.2174 -20.4082
rtoes -6.22392
lfemur -24.731 7.28659 -13.1517
ltibia 41.4162
lfoot -13.571 6.61354
ltoes -18.9091
531
root 9.59114 17.5114 0.291389 3.61532 -15.1226 -6.1258
lowerback 10.0772 3.24685 -2.811
upperback 5.66151 3.9369 -6.99108
thorax 0.594146 1.99314 -6.10286
lowerneck -11.8208 -12.121 -11.5872
upperneck -8.90868 -14.5837 13.9586
head 1.13639 -6.97129 5.20749
rclavicle -6.36111e-015 2.22639e-014
rhumerus 60.348 -21.8075 -41.7777
rradius 24.5458
rwrist -1.3733
rhand -22.7876 15.8114
rfingers 7.12502
rthumb 3.6482 -14.1371
lclavicle -6.36111e-015 2.22639e-014
lhumerus -35.6516 -11.5411 91.5866
lradius 113.35
lwrist 21.1548
lhand -26.2507 2.20595
lfingers 7.12502
lthumb 0.303567 32.1855
rfemur 2.9689 -11.9413 26.9975
rtibia 17.5644
rfoot -18.6607 -20.3014
rtoes -4.92311
lfemur -24.4383 7.16997 -13.4183
ltibia 40.8547
lfoot -13.2053 6.86125
ltoes -19.0111
